<mxfile host="app.diagrams.net" modified="2024-06-22T15:22:57.510Z" agent="Mozilla/5.0 (Windows NT 10.0; Win64; x64) AppleWebKit/537.36 (KHTML, like Gecko) Chrome/126.0.0.0 Safari/537.36" etag="Y9hoH5D3pD9JcV8K8MMq" version="24.5.5" type="device">
  <diagram name="Page-1" id="arClDejTxvfNBvChGNd_">
    <mxGraphModel dx="1643" dy="756" grid="1" gridSize="10" guides="1" tooltips="1" connect="1" arrows="1" fold="1" page="1" pageScale="1" pageWidth="827" pageHeight="1169" math="0" shadow="0">
      <root>
        <mxCell id="0" />
        <mxCell id="1" parent="0" />
        <mxCell id="2" value="" style="rounded=0;whiteSpace=wrap;html=1;" vertex="1" parent="1">
          <mxGeometry x="150" y="90" width="200" height="780" as="geometry" />
        </mxCell>
        <mxCell id="3" value="" style="rounded=0;whiteSpace=wrap;html=1;" vertex="1" parent="1">
          <mxGeometry x="350" y="70" width="200" height="800" as="geometry" />
        </mxCell>
        <mxCell id="4" value="" style="rounded=0;whiteSpace=wrap;html=1;" vertex="1" parent="1">
          <mxGeometry x="550" y="90" width="200" height="780" as="geometry" />
        </mxCell>
        <mxCell id="5" value="" style="rounded=0;whiteSpace=wrap;html=1;" vertex="1" parent="1">
          <mxGeometry x="750" y="90" width="200" height="780" as="geometry" />
        </mxCell>
        <mxCell id="6" value="Administrator" style="rounded=0;whiteSpace=wrap;html=1;" vertex="1" parent="1">
          <mxGeometry x="150" y="60" width="200" height="30" as="geometry" />
        </mxCell>
        <mxCell id="7" value="Igrač" style="rounded=0;whiteSpace=wrap;html=1;" vertex="1" parent="1">
          <mxGeometry x="350" y="60" width="200" height="30" as="geometry" />
        </mxCell>
        <mxCell id="8" value="Sustav" style="rounded=0;whiteSpace=wrap;html=1;" vertex="1" parent="1">
          <mxGeometry x="550" y="60" width="200" height="30" as="geometry" />
        </mxCell>
        <mxCell id="9" value="Globalni Provider Kvote" style="rounded=0;whiteSpace=wrap;html=1;" vertex="1" parent="1">
          <mxGeometry x="750" y="60" width="200" height="30" as="geometry" />
        </mxCell>
        <mxCell id="10" style="edgeStyle=orthogonalEdgeStyle;rounded=0;orthogonalLoop=1;jettySize=auto;html=1;exitX=0.5;exitY=1;exitDx=0;exitDy=0;entryX=0.5;entryY=0;entryDx=0;entryDy=0;" edge="1" parent="1" source="11" target="13">
          <mxGeometry relative="1" as="geometry" />
        </mxCell>
        <mxCell id="11" value="" style="ellipse;whiteSpace=wrap;html=1;aspect=fixed;" vertex="1" parent="1">
          <mxGeometry x="435" y="110" width="30" height="30" as="geometry" />
        </mxCell>
        <mxCell id="12" style="edgeStyle=orthogonalEdgeStyle;rounded=0;orthogonalLoop=1;jettySize=auto;html=1;exitX=0.5;exitY=1;exitDx=0;exitDy=0;entryX=0.5;entryY=0;entryDx=0;entryDy=0;" edge="1" parent="1" source="13" target="15">
          <mxGeometry relative="1" as="geometry" />
        </mxCell>
        <mxCell id="13" value="Prijava" style="rounded=1;whiteSpace=wrap;html=1;" vertex="1" parent="1">
          <mxGeometry x="410" y="180" width="80" height="25" as="geometry" />
        </mxCell>
        <mxCell id="15" value="Pregled kvota" style="rounded=1;whiteSpace=wrap;html=1;" vertex="1" parent="1">
          <mxGeometry x="390" y="260" width="120" height="30" as="geometry" />
        </mxCell>
        <mxCell id="16" style="edgeStyle=orthogonalEdgeStyle;rounded=0;orthogonalLoop=1;jettySize=auto;html=1;exitX=0.5;exitY=1;exitDx=0;exitDy=0;entryX=0.5;entryY=0;entryDx=0;entryDy=0;" edge="1" parent="1" source="15" target="21">
          <mxGeometry relative="1" as="geometry">
            <mxPoint x="450" y="330" as="targetPoint" />
          </mxGeometry>
        </mxCell>
        <mxCell id="21" value="Unos oklada" style="rounded=1;whiteSpace=wrap;html=1;" vertex="1" parent="1">
          <mxGeometry x="380" y="420" width="140" height="30" as="geometry" />
        </mxCell>
        <mxCell id="23" value="Pregled povijesti oklada" style="rounded=1;whiteSpace=wrap;html=1;" vertex="1" parent="1">
          <mxGeometry x="370" y="585" width="140" height="30" as="geometry" />
        </mxCell>
        <mxCell id="24" style="edgeStyle=orthogonalEdgeStyle;rounded=0;orthogonalLoop=1;jettySize=auto;html=1;exitX=0.5;exitY=1;exitDx=0;exitDy=0;entryX=0.5;entryY=0;entryDx=0;entryDy=0;" edge="1" parent="1" source="23" target="27">
          <mxGeometry relative="1" as="geometry">
            <mxPoint x="320" y="610" as="targetPoint" />
          </mxGeometry>
        </mxCell>
        <mxCell id="25" value="Upravljanje korisničkim računima" style="rounded=1;whiteSpace=wrap;html=1;" vertex="1" parent="1">
          <mxGeometry x="170" y="630" width="180" height="30" as="geometry" />
        </mxCell>
        <mxCell id="26" style="edgeStyle=orthogonalEdgeStyle;rounded=0;orthogonalLoop=1;jettySize=auto;html=1;exitX=0.5;exitY=1;exitDx=0;exitDy=0;entryX=0.5;entryY=0;entryDx=0;entryDy=0;" edge="1" parent="1" source="25" target="27">
          <mxGeometry relative="1" as="geometry" />
        </mxCell>
        <mxCell id="27" value="Odjava" style="rounded=1;whiteSpace=wrap;html=1;" vertex="1" parent="1">
          <mxGeometry x="400" y="710" width="80" height="30" as="geometry" />
        </mxCell>
        <mxCell id="28" value="" style="ellipse;whiteSpace=wrap;html=1;aspect=fixed;" vertex="1" parent="1">
          <mxGeometry x="425" y="795" width="30" height="30" as="geometry" />
        </mxCell>
        <mxCell id="29" value="" style="ellipse;whiteSpace=wrap;html=1;aspect=fixed;fillColor=#000000;" vertex="1" parent="1">
          <mxGeometry x="430" y="800" width="20" height="20" as="geometry" />
        </mxCell>
        <mxCell id="pR7k-XiKdVi4OpIOija3-118" value="Provjera" style="rhombus;whiteSpace=wrap;html=1;" vertex="1" parent="1">
          <mxGeometry x="420" y="480" width="60" height="60" as="geometry" />
        </mxCell>
        <mxCell id="pR7k-XiKdVi4OpIOija3-119" value="" style="endArrow=none;html=1;rounded=0;entryX=0.5;entryY=1;entryDx=0;entryDy=0;exitX=0.5;exitY=0;exitDx=0;exitDy=0;" edge="1" parent="1" source="pR7k-XiKdVi4OpIOija3-118" target="21">
          <mxGeometry width="50" height="50" relative="1" as="geometry">
            <mxPoint x="440" y="500" as="sourcePoint" />
            <mxPoint x="490" y="450" as="targetPoint" />
          </mxGeometry>
        </mxCell>
        <mxCell id="pR7k-XiKdVi4OpIOija3-120" value="" style="endArrow=classic;html=1;rounded=0;exitX=0.5;exitY=1;exitDx=0;exitDy=0;entryX=0.565;entryY=0.029;entryDx=0;entryDy=0;entryPerimeter=0;" edge="1" parent="1" source="pR7k-XiKdVi4OpIOija3-118" target="23">
          <mxGeometry width="50" height="50" relative="1" as="geometry">
            <mxPoint x="480" y="570" as="sourcePoint" />
            <mxPoint x="530" y="520" as="targetPoint" />
          </mxGeometry>
        </mxCell>
        <mxCell id="pR7k-XiKdVi4OpIOija3-122" value="" style="endArrow=none;html=1;rounded=0;exitX=1;exitY=0.5;exitDx=0;exitDy=0;" edge="1" parent="1" source="pR7k-XiKdVi4OpIOija3-118">
          <mxGeometry width="50" height="50" relative="1" as="geometry">
            <mxPoint x="470" y="540" as="sourcePoint" />
            <mxPoint x="520" y="490" as="targetPoint" />
          </mxGeometry>
        </mxCell>
        <mxCell id="pR7k-XiKdVi4OpIOija3-123" value="" style="endArrow=classic;html=1;rounded=0;entryX=1;entryY=0.5;entryDx=0;entryDy=0;" edge="1" parent="1" target="21">
          <mxGeometry width="50" height="50" relative="1" as="geometry">
            <mxPoint x="520" y="490" as="sourcePoint" />
            <mxPoint x="530" y="450" as="targetPoint" />
          </mxGeometry>
        </mxCell>
        <mxCell id="pR7k-XiKdVi4OpIOija3-124" value="Neuspjeh" style="edgeLabel;html=1;align=center;verticalAlign=middle;resizable=0;points=[];" vertex="1" connectable="0" parent="pR7k-XiKdVi4OpIOija3-123">
          <mxGeometry x="-0.1718" relative="1" as="geometry">
            <mxPoint as="offset" />
          </mxGeometry>
        </mxCell>
        <mxCell id="pR7k-XiKdVi4OpIOija3-130" value="" style="endArrow=classic;html=1;rounded=0;exitX=0.5;exitY=1;exitDx=0;exitDy=0;entryX=0.5;entryY=0;entryDx=0;entryDy=0;" edge="1" parent="1" source="27" target="28">
          <mxGeometry width="50" height="50" relative="1" as="geometry">
            <mxPoint x="450" y="790" as="sourcePoint" />
            <mxPoint x="500" y="740" as="targetPoint" />
          </mxGeometry>
        </mxCell>
        <mxCell id="pR7k-XiKdVi4OpIOija3-131" value="" style="endArrow=none;html=1;rounded=0;" edge="1" parent="1">
          <mxGeometry width="50" height="50" relative="1" as="geometry">
            <mxPoint x="240" y="150" as="sourcePoint" />
            <mxPoint x="450" y="150" as="targetPoint" />
          </mxGeometry>
        </mxCell>
        <mxCell id="pR7k-XiKdVi4OpIOija3-132" value="" style="endArrow=classic;html=1;rounded=0;entryX=0.378;entryY=-0.213;entryDx=0;entryDy=0;entryPerimeter=0;" edge="1" parent="1" target="25">
          <mxGeometry width="50" height="50" relative="1" as="geometry">
            <mxPoint x="240" y="150" as="sourcePoint" />
            <mxPoint x="260" y="260" as="targetPoint" />
          </mxGeometry>
        </mxCell>
        <mxCell id="pR7k-XiKdVi4OpIOija3-133" value="" style="endArrow=none;html=1;rounded=0;" edge="1" parent="1">
          <mxGeometry width="50" height="50" relative="1" as="geometry">
            <mxPoint x="450" y="150" as="sourcePoint" />
            <mxPoint x="660" y="150" as="targetPoint" />
          </mxGeometry>
        </mxCell>
        <mxCell id="pR7k-XiKdVi4OpIOija3-134" value="" style="endArrow=none;html=1;rounded=0;" edge="1" parent="1">
          <mxGeometry width="50" height="50" relative="1" as="geometry">
            <mxPoint x="660" y="150" as="sourcePoint" />
            <mxPoint x="870" y="150" as="targetPoint" />
          </mxGeometry>
        </mxCell>
        <mxCell id="pR7k-XiKdVi4OpIOija3-135" value="" style="endArrow=none;html=1;rounded=0;exitX=0.5;exitY=0.538;exitDx=0;exitDy=0;exitPerimeter=0;" edge="1" parent="1" source="4">
          <mxGeometry width="50" height="50" relative="1" as="geometry">
            <mxPoint x="650" y="240" as="sourcePoint" />
            <mxPoint x="650" y="150" as="targetPoint" />
          </mxGeometry>
        </mxCell>
        <mxCell id="pR7k-XiKdVi4OpIOija3-137" value="" style="endArrow=classic;html=1;rounded=0;entryX=1;entryY=0.5;entryDx=0;entryDy=0;" edge="1" parent="1" source="pR7k-XiKdVi4OpIOija3-139" target="pR7k-XiKdVi4OpIOija3-118">
          <mxGeometry width="50" height="50" relative="1" as="geometry">
            <mxPoint x="650" y="510" as="sourcePoint" />
            <mxPoint x="630" y="530" as="targetPoint" />
          </mxGeometry>
        </mxCell>
        <mxCell id="pR7k-XiKdVi4OpIOija3-140" value="" style="endArrow=classic;html=1;rounded=0;entryX=1;entryY=0.5;entryDx=0;entryDy=0;" edge="1" parent="1" target="pR7k-XiKdVi4OpIOija3-139">
          <mxGeometry width="50" height="50" relative="1" as="geometry">
            <mxPoint x="650" y="510" as="sourcePoint" />
            <mxPoint x="480" y="510" as="targetPoint" />
          </mxGeometry>
        </mxCell>
        <mxCell id="pR7k-XiKdVi4OpIOija3-139" value="Provjera&lt;div&gt;walleta&lt;/div&gt;" style="rounded=1;whiteSpace=wrap;html=1;" vertex="1" parent="1">
          <mxGeometry x="570" y="495" width="50" height="30" as="geometry" />
        </mxCell>
        <mxCell id="pR7k-XiKdVi4OpIOija3-143" value="" style="endArrow=none;html=1;rounded=0;exitX=0.5;exitY=0.769;exitDx=0;exitDy=0;exitPerimeter=0;" edge="1" parent="1" source="4">
          <mxGeometry width="50" height="50" relative="1" as="geometry">
            <mxPoint x="650" y="610" as="sourcePoint" />
            <mxPoint x="650" y="510" as="targetPoint" />
          </mxGeometry>
        </mxCell>
        <mxCell id="pR7k-XiKdVi4OpIOija3-145" value="" style="endArrow=none;html=1;rounded=0;" edge="1" parent="1">
          <mxGeometry width="50" height="50" relative="1" as="geometry">
            <mxPoint x="440" y="690" as="sourcePoint" />
            <mxPoint x="650" y="690" as="targetPoint" />
          </mxGeometry>
        </mxCell>
        <mxCell id="pR7k-XiKdVi4OpIOija3-146" value="" style="endArrow=classic;html=1;rounded=0;entryX=0.6;entryY=0.179;entryDx=0;entryDy=0;entryPerimeter=0;" edge="1" parent="1" target="5">
          <mxGeometry width="50" height="50" relative="1" as="geometry">
            <mxPoint x="870" y="150" as="sourcePoint" />
            <mxPoint x="870" y="210" as="targetPoint" />
          </mxGeometry>
        </mxCell>
        <mxCell id="pR7k-XiKdVi4OpIOija3-147" value="" style="endArrow=none;html=1;rounded=0;" edge="1" parent="1" source="pR7k-XiKdVi4OpIOija3-148">
          <mxGeometry width="50" height="50" relative="1" as="geometry">
            <mxPoint x="450" y="230" as="sourcePoint" />
            <mxPoint x="870" y="230" as="targetPoint" />
          </mxGeometry>
        </mxCell>
        <mxCell id="pR7k-XiKdVi4OpIOija3-153" value="" style="endArrow=none;html=1;rounded=0;" edge="1" parent="1" target="pR7k-XiKdVi4OpIOija3-148">
          <mxGeometry width="50" height="50" relative="1" as="geometry">
            <mxPoint x="450" y="230" as="sourcePoint" />
            <mxPoint x="870" y="230" as="targetPoint" />
          </mxGeometry>
        </mxCell>
        <mxCell id="pR7k-XiKdVi4OpIOija3-148" value="Unos kvota" style="rounded=1;whiteSpace=wrap;html=1;" vertex="1" parent="1">
          <mxGeometry x="760" y="210" width="70" height="40" as="geometry" />
        </mxCell>
        <mxCell id="pR7k-XiKdVi4OpIOija3-154" value="" style="endArrow=none;html=1;rounded=0;exitX=0.6;exitY=0.769;exitDx=0;exitDy=0;exitPerimeter=0;" edge="1" parent="1" source="5">
          <mxGeometry width="50" height="50" relative="1" as="geometry">
            <mxPoint x="870" y="585" as="sourcePoint" />
            <mxPoint x="870" y="225" as="targetPoint" />
          </mxGeometry>
        </mxCell>
        <mxCell id="pR7k-XiKdVi4OpIOija3-155" value="" style="endArrow=none;html=1;rounded=0;" edge="1" parent="1">
          <mxGeometry width="50" height="50" relative="1" as="geometry">
            <mxPoint x="650" y="690" as="sourcePoint" />
            <mxPoint x="870" y="690" as="targetPoint" />
          </mxGeometry>
        </mxCell>
      </root>
    </mxGraphModel>
  </diagram>
</mxfile>
